<?xml version="1.0" standalone="no"?>
<!DOCTYPE svg PUBLIC "-//W3C//DTD SVG 20010904//EN"
 "http://www.w3.org/TR/2001/REC-SVG-20010904/DTD/svg10.dtd">
<svg version="1.0" xmlns="http://www.w3.org/2000/svg"
 width="512.000000pt" height="512.000000pt" viewBox="0 0 512.000000 512.000000"
 preserveAspectRatio="xMidYMid meet">
<metadata>
Created by potrace 1.14, written by Peter Selinger 2001-2017
</metadata>
<g transform="translate(0.000000,512.000000) scale(0.100000,-0.100000)"
fill="#000000" stroke="none">
<path d="M2405 5114 c-433 -47 -686 -117 -1006 -280 -560 -285 -997 -770
-1224 -1359 -93 -243 -135 -436 -170 -782 l-6 -63 73 0 c106 0 172 20 358 110
91 43 185 85 210 91 45 12 214 18 224 8 3 -3 -15 -51 -41 -107 l-47 -102 -41
0 c-85 -1 -172 -29 -324 -104 -170 -86 -234 -106 -335 -106 l-69 0 6 -68 c4
-37 7 -77 7 -89 0 -17 8 -24 37 -29 72 -14 156 12 332 101 137 70 179 87 239
96 41 6 76 9 78 6 3 -3 1 -22 -5 -43 -5 -22 -15 -65 -21 -96 -11 -57 -12 -58
-45 -58 -52 0 -120 -26 -228 -87 -139 -79 -204 -103 -282 -105 l-66 -2 7 -39
c3 -21 14 -66 24 -100 l17 -62 54 1 c57 1 123 29 207 86 73 50 165 88 220 91
28 1 51 -1 52 -5 0 -5 0 -42 0 -83 0 -72 -1 -75 -23 -75 -49 0 -120 -30 -212
-89 -100 -65 -159 -91 -206 -91 -38 0 -37 -9 7 -115 l37 -87 33 5 c18 3 53 20
76 36 160 115 163 117 265 136 39 8 48 -6 58 -87 l7 -58 -38 0 c-51 -1 -108
-28 -164 -77 -62 -56 -119 -93 -141 -93 -11 0 -19 -4 -19 -8 0 -11 98 -170
109 -176 5 -3 39 22 77 55 82 72 135 105 186 114 21 4 38 10 38 14 0 3 -8 36
-19 72 l-19 65 79 12 c94 13 203 58 284 115 58 42 60 44 62 92 5 101 54 193
201 380 39 49 85 115 102 146 40 76 40 140 -1 296 -52 198 -58 234 -59 348 0
120 15 200 56 298 48 113 152 256 226 308 22 16 15 1 -36 -75 -108 -161 -156
-310 -156 -478 0 -97 15 -169 66 -333 33 -106 37 -132 38 -230 1 -105 0 -113
-31 -170 -17 -33 -72 -114 -122 -180 -102 -133 -158 -236 -167 -307 -9 -68 19
-178 75 -291 l49 -99 -75 -59 c-95 -75 -220 -136 -320 -156 -104 -20 -126 -11
-160 63 -24 54 -27 56 -56 50 -50 -10 -90 -36 -166 -107 l-71 -67 61 -76 c33
-42 62 -76 63 -76 1 0 35 33 76 73 41 40 90 78 107 85 32 11 33 10 60 -35 25
-44 26 -47 9 -57 -41 -25 -88 -67 -126 -112 l-40 -48 48 -49 c26 -27 60 -58
75 -69 l29 -21 31 39 c34 42 98 104 106 104 4 0 19 -19 34 -41 l29 -40 -40
-43 c-22 -23 -47 -55 -57 -70 -21 -31 -28 -22 89 -106 76 -55 86 -59 86 -32 0
34 68 157 149 272 45 63 96 144 114 180 29 58 32 74 32 151 0 48 3 85 7 83 4
-2 16 -30 28 -62 17 -44 21 -73 18 -132 -4 -87 -29 -147 -134 -321 -70 -117
-107 -206 -102 -247 2 -19 17 -33 63 -58 33 -19 63 -34 66 -34 4 0 14 33 23
73 11 47 52 145 120 287 121 249 135 299 112 390 -19 72 -46 127 -133 268
-115 185 -151 287 -139 394 8 85 49 162 167 318 137 181 154 219 153 335 0 82
-5 104 -53 245 -29 85 -59 188 -67 228 -35 185 -2 370 97 540 35 58 187 222
208 222 6 0 -9 -27 -34 -60 -98 -134 -148 -256 -167 -405 -16 -125 -1 -232 53
-384 87 -245 92 -267 93 -386 1 -103 -1 -114 -30 -175 -17 -36 -73 -119 -124
-185 -114 -149 -151 -219 -158 -301 -9 -111 18 -174 188 -444 97 -155 124
-255 100 -372 -9 -39 -42 -118 -88 -208 -121 -233 -133 -260 -153 -339 -29
-115 -31 -112 59 -145 42 -16 82 -31 88 -33 8 -3 13 23 17 74 6 105 26 158
128 359 114 223 132 277 126 374 -5 93 -28 146 -137 316 -229 358 -228 452 4
745 37 46 84 118 104 158 35 70 37 81 37 165 -1 108 -14 157 -95 351 -78 188
-93 247 -93 375 0 129 17 203 78 326 57 116 208 285 232 260 4 -3 -12 -32 -34
-63 -89 -127 -126 -226 -143 -382 -17 -159 4 -253 112 -500 97 -224 121 -329
99 -446 -16 -86 -57 -166 -150 -289 -124 -165 -136 -191 -136 -306 0 -86 3
-101 32 -163 18 -37 72 -129 121 -205 108 -165 128 -203 148 -284 31 -121 5
-226 -117 -471 -81 -161 -115 -257 -125 -349 -11 -107 -7 -112 83 -131 43 -9
83 -17 89 -17 8 0 13 41 16 118 6 139 26 205 125 412 111 231 128 292 111 395
-12 80 -46 148 -156 318 -115 175 -134 211 -157 292 -33 113 -4 217 95 345
112 143 138 192 164 313 11 46 42 53 133 28 100 -27 186 -27 286 0 91 25 122
18 133 -28 26 -121 52 -170 164 -313 99 -128 128 -232 95 -345 -23 -82 -51
-134 -157 -293 -141 -212 -175 -306 -156 -427 10 -66 27 -109 111 -285 99
-207 119 -273 125 -412 3 -77 8 -118 16 -118 6 0 46 8 89 17 90 19 94 24 83
131 -10 92 -44 188 -125 349 -122 245 -148 350 -117 471 20 81 40 119 148 284
49 76 103 168 121 205 29 62 32 77 32 163 0 115 -14 145 -134 303 -129 169
-169 271 -158 402 8 91 33 169 105 336 108 247 129 341 112 500 -17 156 -54
255 -143 382 -22 31 -38 60 -34 63 11 11 45 -16 116 -92 51 -55 84 -102 116
-168 61 -123 78 -197 78 -326 0 -128 -15 -187 -93 -375 -81 -194 -94 -243 -95
-351 0 -84 2 -95 37 -165 20 -40 67 -112 104 -158 166 -209 201 -308 158 -452
-22 -75 -59 -144 -154 -293 -109 -170 -132 -223 -137 -316 -6 -97 12 -151 126
-374 102 -201 122 -254 128 -359 4 -51 9 -77 17 -74 6 2 46 17 89 33 89 33 87
30 58 145 -20 79 -32 106 -153 339 -46 90 -79 169 -88 208 -24 117 3 217 100
372 170 270 197 333 188 444 -7 82 -44 152 -158 301 -51 66 -107 149 -124 185
-29 61 -31 72 -30 175 1 119 6 141 93 386 54 152 69 259 53 384 -19 149 -69
271 -167 405 -25 33 -40 60 -34 60 21 0 173 -164 208 -222 99 -170 132 -355
97 -540 -8 -40 -38 -143 -67 -228 -48 -141 -53 -163 -53 -245 -1 -116 16 -154
153 -335 118 -156 159 -233 167 -318 12 -107 -24 -209 -139 -394 -87 -141
-114 -196 -133 -268 -23 -91 -9 -141 112 -390 68 -142 109 -240 120 -287 9
-40 19 -73 23 -73 3 0 33 15 66 34 46 25 61 39 63 58 5 41 -32 130 -102 247
-105 174 -130 234 -134 321 -3 59 1 88 18 132 12 32 25 60 29 62 4 3 5 -24 3
-58 -7 -114 13 -158 190 -418 42 -62 84 -138 94 -168 11 -30 20 -57 21 -59 3
-5 123 76 162 109 23 20 23 21 6 47 -10 14 -35 46 -57 69 l-40 43 29 40 c15
22 30 41 34 41 8 0 72 -62 106 -104 l31 -39 29 21 c15 11 49 42 75 69 l48 49
-40 48 c-38 45 -85 87 -126 112 -17 10 -16 13 9 57 27 45 28 46 60 35 17 -7
66 -45 107 -85 41 -40 75 -73 76 -73 1 0 30 34 63 76 l61 76 -71 67 c-76 71
-116 97 -166 107 -29 6 -32 4 -56 -50 -34 -74 -56 -83 -160 -63 -100 20 -225
81 -320 156 l-75 59 49 99 c56 113 84 223 75 291 -9 71 -65 174 -167 307 -50
66 -105 147 -122 180 -31 57 -32 65 -31 170 1 98 5 124 38 230 52 166 66 236
66 340 0 166 -52 320 -164 483 -47 70 -52 81 -28 64 74 -53 178 -195 226 -309
41 -98 56 -178 56 -298 -1 -114 -7 -150 -59 -348 -41 -156 -41 -220 -1 -296
17 -31 63 -97 102 -146 147 -187 196 -279 201 -380 2 -48 4 -50 62 -92 81 -57
190 -102 284 -115 l79 -12 -19 -65 c-11 -36 -19 -69 -19 -72 0 -4 17 -10 38
-14 51 -9 104 -42 186 -114 38 -34 72 -61 75 -61 7 0 111 172 111 183 0 4 -8
7 -19 7 -22 0 -79 37 -141 93 -56 49 -113 76 -164 77 l-38 0 7 58 c10 81 19
95 58 87 80 -15 116 -29 167 -65 30 -22 74 -54 98 -71 23 -16 58 -33 76 -36
l33 -5 37 87 c44 106 45 115 7 115 -48 0 -112 28 -208 91 -88 58 -161 89 -210
89 -22 0 -23 3 -23 75 0 41 0 78 0 83 1 4 24 6 52 5 55 -3 147 -41 220 -91 84
-57 150 -85 207 -86 l54 -1 17 62 c10 34 21 79 24 100 l7 39 -66 2 c-78 2
-143 26 -282 105 -108 61 -176 87 -228 87 -33 0 -34 1 -45 58 -6 31 -16 74
-21 96 -6 21 -8 40 -5 43 2 3 37 0 78 -6 60 -9 102 -26 239 -96 175 -88 260
-114 331 -101 l35 6 7 68 c11 121 16 112 -62 112 -98 0 -158 19 -340 108 -159
79 -234 102 -323 102 -34 0 -35 1 -82 102 -26 56 -44 104 -41 107 10 10 179 4
224 -8 25 -6 119 -48 210 -91 186 -90 252 -110 358 -110 l73 0 -6 63 c-44 440
-113 693 -278 1022 -342 682 -1002 1190 -1747 1344 -207 43 -543 70 -685 55z
m226 -314 c51 -122 67 -150 84 -151 11 0 87 -6 169 -12 l150 -12 -119 -105
c-65 -58 -122 -108 -127 -111 -7 -5 94 -284 107 -298 3 -2 22 12 43 31 98 89
230 156 380 194 88 22 152 30 152 19 0 -2 -15 -28 -34 -57 -54 -85 -185 -358
-172 -358 2 0 34 20 72 45 87 57 198 100 310 120 48 8 89 14 91 12 2 -2 -12
-24 -30 -48 -66 -86 -160 -235 -208 -331 -27 -53 -53 -99 -58 -102 -5 -3 -43
10 -85 30 -106 48 -292 109 -411 133 -389 80 -826 31 -1181 -133 -42 -20 -80
-33 -85 -30 -5 3 -31 49 -58 102 -48 96 -142 245 -208 331 -18 24 -32 46 -30
48 2 2 43 -4 91 -12 112 -20 223 -63 310 -120 38 -25 70 -45 72 -45 13 0 -118
273 -172 358 -19 29 -34 55 -34 57 0 11 64 3 152 -19 150 -38 282 -105 380
-194 21 -19 40 -33 43 -31 13 14 114 293 107 298 -5 3 -62 53 -127 111 l-119
105 150 12 c82 6 158 12 169 12 17 1 33 29 84 151 35 83 67 150 71 150 4 0 36
-67 71 -150z m-2009 -967 c104 -93 164 -186 205 -314 l28 -87 55 28 c126 64
290 93 403 71 89 -16 139 -31 135 -40 -2 -5 -39 -37 -83 -71 -108 -86 -249
-230 -331 -340 -43 -58 -73 -89 -81 -85 -45 16 -147 24 -210 15 -83 -11 -144
-32 -288 -97 -158 -72 -209 -87 -292 -87 -40 0 -75 3 -79 6 -3 4 25 42 63 85
262 295 387 558 398 833 3 58 5 108 5 113 0 18 33 4 72 -30z m3948 30 c7 -181
12 -230 34 -318 48 -187 180 -413 359 -618 44 -48 76 -91 72 -95 -3 -4 -38 -6
-78 -6 -83 0 -134 15 -292 87 -144 65 -205 86 -288 97 -63 9 -165 1 -210 -15
-8 -4 -38 27 -81 85 -82 110 -223 254 -331 340 -44 34 -81 66 -83 71 -4 9 46
24 135 40 113 22 277 -7 403 -71 l55 -28 28 87 c41 128 101 221 205 314 39 34
72 48 72 30z m-1865 -158 c96 -25 182 -72 244 -134 52 -52 112 -153 99 -167
-3 -3 -30 2 -59 10 -104 31 -227 10 -298 -50 -35 -31 -40 -41 -51 -105 -17
-98 4 -229 36 -229 7 0 25 23 39 50 14 28 32 50 41 50 9 0 41 -7 71 -16 59
-17 110 -13 149 13 22 14 26 14 49 -1 30 -20 40 -66 32 -155 -17 -203 -181
-453 -353 -538 -64 -31 -83 -36 -144 -36 -61 0 -80 5 -144 36 -182 90 -340
340 -353 559 -9 133 20 161 124 122 40 -15 48 -15 119 2 l77 18 39 -23 c22
-12 43 -20 46 -16 4 4 7 56 7 117 l0 110 -42 38 c-73 64 -195 86 -302 54 -29
-8 -56 -13 -59 -10 -13 14 47 115 99 167 61 61 147 109 239 133 73 19 221 20
295 1z m-427 -381 c41 -17 92 -61 92 -79 0 -9 -13 -9 -52 1 -68 18 -130 18
-175 -1 -27 -11 -39 -12 -49 -4 -22 18 -17 66 8 83 29 21 127 21 176 0z m740
0 c25 -18 30 -65 8 -83 -11 -10 -22 -9 -47 5 -26 13 -48 15 -98 11 -37 -4 -76
-9 -88 -13 -18 -5 -23 -2 -23 13 0 44 77 82 165 83 39 0 68 -6 83 -16z"/>
<path d="M2425 4129 c-71 -56 -132 -105 -133 -110 -3 -6 16 -7 50 -2 29 4 127
8 218 8 91 0 189 -4 218 -8 34 -5 53 -4 50 2 -3 9 -263 212 -270 210 -2 0 -61
-45 -133 -100z"/>
<path d="M2444 2895 c-25 -18 -12 -29 56 -50 58 -18 62 -18 120 0 34 10 64 23
67 28 14 23 -30 35 -127 35 -63 0 -105 -5 -116 -13z"/>
<path d="M2360 2729 c0 -3 26 -31 58 -62 70 -66 119 -84 184 -67 27 8 61 30
100 67 32 31 58 59 58 62 0 3 -90 6 -200 6 -110 0 -200 -3 -200 -6z"/>
</g>
</svg>
